<svg xmlns="http://www.w3.org/2000/svg" viewBox="0 0 80 80" width="80" height="80" preserveAspectRatio="xMidYMid meet" style="width: 100%; height: 100%; transform: translate3d(0px, 0px, 0px); content-visibility: visible;">
  <defs>
    <clipPath id="__lottie_element_2">
      <rect width="80" height="80" x="0" y="0"/>
    </clipPath>
    <filter id="__lottie_element_9" filterUnits="objectBoundingBox" x="0%" y="0%" width="100%" height="100%">
      <feComponentTransfer in="SourceGraphic">
        <feFuncA type="table" tableValues="1.0 0.0"/>
      </feComponentTransfer>
    </filter>
    <mask id="__lottie_element_5" mask-type="alpha">
      <g filter="url(#__lottie_element_9)">
        <rect width="80" height="80" x="0" y="0" fill="#ffffff" opacity="0"/>
        <g transform="matrix(0.36000001430511475,0,0,0.36000001430511475,147.8000030517578,52)" opacity="1" style="display: block;">
          <g opacity="1" transform="matrix(1,0,0,1,0,0)">
            <path stroke-linecap="butt" stroke-linejoin="miter" fill-opacity="0" stroke-miterlimit="4" stroke="rgb(31,98,255)" stroke-opacity="1" stroke-width="33" d="M0 0"/>
          </g>
        </g>
      </g>
    </mask>
    <filter id="__lottie_element_16" filterUnits="objectBoundingBox" x="0%" y="0%" width="100%" height="100%">
      <feComponentTransfer in="SourceGraphic">
        <feFuncA type="table" tableValues="1.0 0.0"/>
      </feComponentTransfer>
    </filter>
    <mask id="__lottie_element_12" mask-type="alpha">
      <g filter="url(#__lottie_element_16)">
        <rect width="80" height="80" x="0" y="0" fill="#ffffff" opacity="0"/>
        <g transform="matrix(0.36000001430511475,0,0,0.36000001430511475,147.8000030517578,52)" opacity="1" style="display: block;">
          <g opacity="1" transform="matrix(1,0,0,1,0,0)">
            <path stroke-linecap="butt" stroke-linejoin="miter" fill-opacity="0" stroke-miterlimit="4" stroke="rgb(31,98,255)" stroke-opacity="1" stroke-width="28" d="M0 0"/>
          </g>
        </g>
      </g>
    </mask>
    <filter id="__lottie_element_23" filterUnits="objectBoundingBox" x="0%" y="0%" width="100%" height="100%">
      <feComponentTransfer in="SourceGraphic">
        <feFuncA type="table" tableValues="1.0 0.0"/>
      </feComponentTransfer>
    </filter>
    <mask id="__lottie_element_19" mask-type="alpha">
      <g filter="url(#__lottie_element_23)">
        <rect width="80" height="80" x="0" y="0" fill="#ffffff" opacity="0"/>
        <g transform="matrix(0.36000001430511475,0,0,0.36000001430511475,147.8000030517578,52)" opacity="1" style="display: block;">
          <g opacity="1" transform="matrix(1.0097500085830688,0,0,1.027519941329956,0,0)">
            <path stroke-linecap="butt" stroke-linejoin="miter" fill-opacity="0" stroke-miterlimit="4" stroke="rgb(31,98,255)" stroke-opacity="1" stroke-width="32" d="M0 0"/>
          </g>
        </g>
      </g>
    </mask>
  </defs>
  <g clip-path="url(#__lottie_element_2)">
    <g mask="url(#__lottie_element_19)" style="display: block;">
      <g transform="matrix(0.36000001430511475,0,0,0.36000001430511475,12.831684112548828,24.039878845214844)" opacity="1">
        <g opacity="1" transform="matrix(1,0,0,1,61.180999755859375,67.13400268554688)">
          <path fill="rgb(0,0,0)" fill-opacity="1" d=" M5.906000137329102,-66.88400268554688 C28.722000122070312,-66.88400268554688 48.861000061035156,-55.48699951171875 60.930999755859375,-38.0890007019043 C49.680999755859375,-49.10100173950195 34.250999450683594,-55.875999450683594 17.253000259399414,-55.875999450683594 C-17.200000762939453,-55.875999450683594 -45.13800048828125,-28.062999725341797 -45.13800048828125,6.230999946594238 C-45.13800048828125,33.51300048828125 -27.464000701904297,56.67900085449219 -2.9059998989105225,65.01200103759766 C-2.6579999923706055,65.09500122070312 -2.0239999294281006,65.27899932861328 -1.184999942779541,65.49700164794922 C1.1369999647140503,66.0989990234375 4.676000118255615,66.69200134277344 5.3520002365112305,66.88400268554688 C4.760000228881836,66.83000183105469 2.249000072479248,66.625 0.09099999815225601,66.25299835205078 C-1.402999997138977,65.99800109863281 -2.7249999046325684,65.63099670410156 -3.128000020980835,65.57599639892578 C-35.75600051879883,61.20100021362305 -60.930999755859375,33.32899856567383 -60.930999755859375,-0.36800000071525574 C-60.930999755859375,-37.09000015258789 -31.003000259399414,-66.88400268554688 5.906000137329102,-66.88400268554688z"/>
        </g>
        <g opacity="1" transform="matrix(1,0,0,1,65.21600341796875,70.03299713134766)">
          <path fill="rgb(0,0,0)" fill-opacity="1" d=" M-49.172000885009766,3.3350000381469727 C-49.172000885009766,-30.958999633789062 -21.235000610351562,-58.77199935913086 13.218999862670898,-58.77199935913086 C25.599000930786133,-58.77199935913086 37.145999908447266,-55.17399978637695 46.85599899291992,-48.96699905395508 C47.70600128173828,-48.42399978637695 48.5359992980957,-47.86399841308594 49.35599899291992,-47.27899932861328 C50.04600143432617,-46.790000915527344 50.72600173950195,-46.284000396728516 51.40599822998047,-45.762001037597656 C52.18600082397461,-45.15999984741211 52.95600128173828,-44.52899932861328 53.70600128173828,-43.88999938964844 C54.625999450683594,-43.108001708984375 56.00600051879883,-41.84199905395508 56.875999450683594,-41.0099983215332 C56.54600143432617,-41.41600036621094 55.7859992980957,-42.2599983215332 55.45600128173828,-42.62799835205078 C54.97600173950195,-43.16299819946289 54.49599838256836,-43.672000885009766 53.99599838256836,-44.191001892089844 C53.32600021362305,-44.88399887084961 52.57600021362305,-45.54499816894531 51.88600158691406,-46.20500183105469 C51.22600173950195,-46.83599853515625 50.54600143432617,-47.45000076293945 49.85599899291992,-48.04800033569336 C49.17599868774414,-48.645999908447266 48.486000061035156,-49.22700119018555 47.7760009765625,-49.79499816894531 C36.74599838256836,-58.62099838256836 22.743999481201172,-63.9119987487793 7.497000217437744,-63.9119987487793 C-28.023000717163086,-63.9119987487793 -56.875999450683594,-35.250999450683594 -56.875999450683594,0.10499999672174454 C-56.875999450683594,28.084999084472656 -38.665000915527344,51.737998962402344 -13.510000228881836,60.43899917602539 C-9.984000205993652,61.6609992980957 -6.386000156402588,62.74300003051758 -2.6080000400543213,63.33599853515625 C-1.8559999465942383,63.46200180053711 -0.5550000071525574,63.72100067138672 0.7459999918937683,63.91299819946289 C-1.503999948501587,63.402000427246094 -6.269000053405762,62.316001892089844 -6.940000057220459,62.090999603271484 C-7.250999927520752,61.98099899291992 -7.561999797821045,61.902000427246094 -7.872000217437744,61.790000915527344 C-31.947999954223633,53.19200134277344 -49.172000885009766,30.270000457763672 -49.172000885009766,3.3350000381469727z"/>
        </g>
      </g>
    </g>
    <g mask="url(#__lottie_element_12)" style="display: block;">
      <g transform="matrix(0.36000001430511475,0,0,0.36000001430511475,22.109243392944336,38.30235290527344)" opacity="1">
        <g opacity="1" transform="matrix(1,0,0,1,44.96500015258789,47.58599853515625)">
          <path fill="rgb(0,0,0)" fill-opacity="1" d=" M2.8489999771118164,-47.33599853515625 C20.49799919128418,-47.33599853515625 35.915000915527344,-37.749000549316406 44.10499954223633,-23.506000518798828 C44.185001373291016,-23.371999740600586 44.25600051879883,-23.233999252319336 44.33599853515625,-23.10099983215332 C44.42599868774414,-22.933000564575195 44.44599914550781,-22.90399932861328 44.51599884033203,-22.724000930786133 C44.566001892089844,-22.6200008392334 44.654998779296875,-22.361000061035156 44.71500015258789,-22.268999099731445 C44.505001068115234,-22.514999389648438 44.34600067138672,-22.808000564575195 44.125999450683594,-23.049999237060547 C44.01599884033203,-23.176000595092773 43.90599822998047,-23.301000595092773 43.79600143432617,-23.422000885009766 C36.09600067138672,-31.885000228881836 24.975000381469727,-37.19300079345703 12.61299991607666,-37.19300079345703 C-10.64900016784668,-37.19300079345703 -29.624000549316406,-18.410999298095703 -29.624000549316406,4.741000175476074 C-29.624000549316406,26.639999389648438 -13.708000183105469,44.79100036621094 8.822999954223633,46.507999420166016 C8.831000328063965,46.507999420166016 10.708000183105469,46.66699981689453 10.770999908447266,46.64500045776367 C10.385000228881836,46.784000396728516 8.998000144958496,46.94300079345703 8.986000061035156,46.94300079345703 C6.979000091552734,47.20600128173828 4.931000232696533,47.33599853515625 2.8489999771118164,47.33599853515625 C-23.405000686645508,47.33599853515625 -44.71500015258789,26.145999908447266 -44.71500015258789,0.009999999776482582 C-44.71500015258789,-26.125999450683594 -23.405000686645508,-47.33599853515625 2.8489999771118164,-47.33599853515625z"/>
        </g>
      </g>
    </g>
    <g mask="url(#__lottie_element_5)" style="display: block;">
      <g transform="matrix(0.36000001430511475,0,0,0.36000001430511475,6.9499993324279785,6.189996242523193)" opacity="1">
        <g opacity="1" transform="matrix(1,0,0,1,92.83999633789062,92.22000122070312)">
          <path fill="rgb(0,0,0)" fill-opacity="1" d=" M-0.1120000034570694,-91.97000122070312 C50.959999084472656,-91.97000122070312 92.58999633789062,-50.79600143432617 92.37999725341797,-0.014999999664723873 C92.19000244140625,47.867000579833984 56.40999984741211,86.5739974975586 10.258000373840332,91.65599822998047 C8.057999610900879,91.90299987792969 5.00600004196167,91.91999816894531 3.3519999980926514,91.91999816894531 C3.0290000438690186,91.91999816894531 1.2699999809265137,91.97000122070312 -0.07400000095367432,91.96099853515625 C-1.0729999542236328,91.9530029296875 -1.7319999933242798,91.88600158691406 -1.9800000190734863,91.90299987792969 C-1.3880000114440918,91.86100006103516 2.9739999771118164,91.66899871826172 3.5450000762939453,91.61499786376953 C13.107999801635742,90.65699768066406 22.219999313354492,88.15399932861328 31.1200008392334,83.99199676513672 C65.56999969482422,67.89700317382812 73.19000244140625,41.16699981689453 73.19000244140625,11.156000137329102 C73.19000244140625,-33.81999969482422 36.52000045776367,-70.28800201416016 -8.708999633789062,-70.28800201416016 C-53.93899917602539,-70.28800201416016 -90.61299896240234,-33.81999969482422 -90.61299896240234,11.156000137329102 C-90.61299896240234,13.85200023651123 -90.04199981689453,19.81100082397461 -89.86499786376953,21.575000762939453 C-89.83599853515625,21.847000122070312 -89.91200256347656,21.996999740600586 -89.89900207519531,22.042999267578125 C-90.0250015258789,21.507999420166016 -90.15899658203125,20.993999481201172 -90.29399871826172,20.409000396728516 C-91.78800201416016,13.843999862670898 -92.58999633789062,7.014999866485596 -92.58999633789062,-0.014999999664723873 C-92.58999633789062,-50.79600143432617 -51.185001373291016,-91.97000122070312 -0.1120000034570694,-91.97000122070312z"/>
        </g>
        <g opacity="1" transform="matrix(1,0,0,1,88.88800048828125,97.24099731445312)">
          <path fill="rgb(0,0,0)" fill-opacity="1" d=" M9.842000007629395,86.3949966430664 C10.98799991607666,86.26899719238281 12.151000022888184,86.09500122070312 12.61299991607666,86.02400207519531 C54.25199890136719,79.70899963378906 87.24199676513672,43.077999114990234 87.24199676513672,1.7070000171661377 C87.24199676513672,-47.52799987792969 47.6619987487793,-86.87899780273438 -0.5400000214576721,-86.87899780273438 C-46.78099822998047,-86.87899780273438 -87.24199676513672,-47.016998291015625 -87.24199676513672,0.6340000033378601 C-87.24199676513672,4.929999828338623 -86.88500213623047,9.180999755859375 -86.3219985961914,13.321999549865723 C-86.18800354003906,14.166999816894531 -86.04100036621094,15.571000099182129 -86.00700378417969,15.725000381469727 C-86.0199966430664,15.590999603271484 -86.01100158691406,14.901000022888184 -86.04499816894531,14.395000457763672 C-86.04900360107422,14.345000267028809 -86.22100067138672,9.65999984741211 -86.22100067138672,6.638999938964844 C-86.22100067138672,-37.94900131225586 -49.90399932861328,-75.30599975585938 -5.114999771118164,-75.30599975585938 C39.68199920654297,-75.30599975585938 77.53199768066406,-39.808998107910156 77.08200073242188,7.7170000076293945 C76.7020034790039,48.263999938964844 45.981998443603516,80.75 6.85699987411499,86.50399780273438 C6.425000190734863,86.5719985961914 3.8429999351501465,86.78900146484375 2.986999988555908,86.87899780273438 C3.3559999465942383,86.87200164794922 3.934999942779541,86.86000061035156 4.304999828338623,86.84700012207031 C4.8460001945495605,86.8270034790039 5.388000011444092,86.8010025024414 5.610000133514404,86.79299926757812 C6.01800012588501,86.77200317382812 6.425000190734863,86.74400329589844 6.831999778747559,86.70899963378906 C7.318999767303467,86.66699981689453 8.590999603271484,86.53800201416016 9.842000007629395,86.3949966430664z"/>
        </g>
      </g>
    </g>
  </g>
</svg>
