<svg width="0" height="0" class="hidden">
  <symbol xmlns="http://www.w3.org/2000/svg" viewBox="0 0 32 32" id="linkedin-icon">
    <title>logo-linkedin</title>
    <g>
      <rect x="30.47" y="3.05" width="1.53" height="25.9" fill="currentColor"></rect>
      <rect x="28.95" y="28.95" width="1.52" height="1.53" fill="currentColor"></rect>
      <rect x="28.95" y="1.52" width="1.52" height="1.53" fill="currentColor"></rect>
      <rect x="27.42" y="4.57" width="1.53" height="22.86" fill="currentColor"></rect>
      <rect x="3.04" y="30.48" width="25.91" height="1.52" fill="currentColor"></rect>
      <rect x="4.57" y="27.43" width="22.85" height="1.52" fill="currentColor"></rect>
      <polygon points="22.85 15.24 21.33 15.24 21.33 13.71 18.28 13.71 18.28 15.24 16.76 15.24 16.76 13.71 13.71 13.71 13.71 22.86 16.76 22.86 16.76 18.29 18.28 18.29 18.28 16.76 19.81 16.76 19.81 18.29 21.33 18.29 21.33 22.86 24.38 22.86 24.38 16.76 22.85 16.76 22.85 15.24" fill="currentColor"></polygon>
      <rect x="7.61" y="13.71" width="3.05" height="9.15" fill="currentColor"></rect>
      <rect x="7.61" y="9.14" width="3.05" height="3.05" fill="currentColor"></rect>
      <rect x="4.57" y="3.05" width="22.85" height="1.52" fill="currentColor"></rect>
      <rect x="3.04" width="25.91" height="1.52" fill="currentColor"></rect>
      <rect x="3.04" y="4.57" width="1.53" height="22.86" fill="currentColor"></rect>
      <rect x="1.52" y="28.95" width="1.52" height="1.53" fill="currentColor"></rect>
      <rect x="1.52" y="1.52" width="1.52" height="1.53" fill="currentColor"></rect>
      <rect y="3.05" width="1.52" height="25.9" fill="currentColor"></rect>
    </g>
  </symbol>
  <symbol xmlns="http://www.w3.org/2000/svg" viewBox="0 0 32 32" id="link-icon">
    <title>interface-essential-share-2</title>
    <g>
      <polygon points="30.48 4.57 28.95 4.57 28.95 6.1 27.43 6.1 27.43 4.57 25.91 4.57 25.91 3.05 27.43 3.05 27.43 1.52 25.91 1.52 25.91 0 24.38 0 24.38 6.1 19.81 6.1 19.81 7.62 24.38 7.62 24.38 13.71 25.91 13.71 25.91 12.19 27.43 12.19 27.43 10.67 28.95 10.67 28.95 9.14 30.48 9.14 30.48 7.62 32 7.62 32 6.1 30.48 6.1 30.48 4.57" fill="currentColor"></polygon>
      <rect x="27.43" y="16.76" width="1.52" height="12.19" fill="currentColor"></rect>
      <rect x="27.43" y="3.05" width="1.52" height="1.52" fill="currentColor"></rect>
      <rect x="25.91" y="28.95" width="1.52" height="1.53" fill="currentColor"></rect>
      <rect x="3.05" y="30.48" width="22.86" height="1.52" fill="currentColor"></rect>
      <rect x="16.76" y="7.62" width="3.05" height="1.52" fill="currentColor"></rect>
      <rect x="15.24" y="9.14" width="1.52" height="1.53" fill="currentColor"></rect>
      <rect x="13.71" y="10.67" width="1.53" height="7.62" fill="currentColor"></rect>
      <rect x="3.05" y="3.05" width="15.24" height="1.52" fill="currentColor"></rect>
      <rect x="1.52" y="28.95" width="1.53" height="1.53" fill="currentColor"></rect>
      <rect x="1.52" y="4.57" width="1.53" height="1.53" fill="currentColor"></rect>
      <rect y="6.1" width="1.52" height="22.85" fill="currentColor"></rect>
    </g>
  </symbol>
  <symbol xmlns="http://www.w3.org/2000/svg" viewBox="0 0 32 32" id="man-icon">
    <title>music-headphones-human</title>
    <g>
      <rect x="29.715" y="12.955" width="1.52" height="6.09" fill="currentColor"></rect>
      <polygon points="9.905 12.955 11.425 12.955 11.425 11.425 12.955 11.425 12.955 9.905 19.045 9.905 19.045 11.425 20.575 11.425 20.575 9.905 25.145 9.905 25.145 11.425 26.665 11.425 26.665 23.615 28.195 23.615 28.195 20.575 29.715 20.575 29.715 19.045 28.195 19.045 28.195 12.955 29.715 12.955 29.715 11.425 28.195 11.425 28.195 5.335 26.665 5.335 26.665 6.855 25.145 6.855 25.145 5.335 22.095 5.335 22.095 3.805 11.425 3.805 11.425 5.335 9.905 5.335 9.905 6.855 8.385 6.855 8.385 9.905 6.855 9.905 6.855 5.335 5.335 5.335 5.335 9.905 3.815 9.905 3.815 11.425 9.905 11.425 9.905 12.955" fill="currentColor"></polygon>
      <rect x="25.145" y="23.615" width="1.52" height="1.53" fill="currentColor"></rect>
      <rect x="25.145" y="3.805" width="1.52" height="1.53" fill="currentColor"></rect>
      <rect x="23.615" y="20.575" width="1.53" height="1.52" fill="currentColor"></rect>
      <rect x="23.615" y="15.995" width="1.53" height="3.05" fill="currentColor"></rect>
      <rect x="23.615" y="2.285" width="1.53" height="1.52" fill="currentColor"></rect>
      <path d="M11.425,25.145V28.2H8.385v1.52H5.335v1.52h24.38v-1.52h-3.05V28.2h-3.05v-1.53h1.53v-1.52Zm10.67,4.57h-6.09V28.2h-3.05v-1.53H22.1Z" fill="currentColor"></path>
      <rect x="19.045" y="22.095" width="4.57" height="1.52" fill="currentColor"></rect>
      <rect x="17.525" y="20.575" width="1.52" height="1.52" fill="currentColor"></rect>
      <rect x="16.005" y="15.995" width="1.52" height="3.05" fill="currentColor"></rect>
      <rect x="16.005" y="11.425" width="3.04" height="1.53" fill="currentColor"></rect>
      <rect x="11.425" y="12.955" width="1.53" height="6.09" fill="currentColor"></rect>
      <rect x="9.905" y="0.765" width="13.71" height="1.52" fill="currentColor"></rect>
      <rect x="9.905" y="23.615" width="1.52" height="1.53" fill="currentColor"></rect>
      <rect x="9.905" y="19.045" width="1.52" height="1.53" fill="currentColor"></rect>
      <polygon points="3.815 20.575 3.815 22.095 8.385 22.095 8.385 23.615 9.905 23.615 9.905 20.575 3.815 20.575" fill="currentColor"></polygon>
      <rect x="8.385" y="2.285" width="1.52" height="1.52" fill="currentColor"></rect>
      <rect x="6.855" y="3.805" width="1.53" height="1.53" fill="currentColor"></rect>
      <rect x="5.335" y="12.955" width="1.52" height="1.52" fill="currentColor"></rect>
      <rect x="3.815" y="14.475" width="1.52" height="3.05" fill="currentColor"></rect>
      <rect x="2.285" y="19.045" width="1.53" height="1.53" fill="currentColor"></rect>
      <rect x="2.285" y="11.425" width="1.53" height="1.53" fill="currentColor"></rect>
      <rect x="0.765" y="12.955" width="1.52" height="6.09" fill="currentColor"></rect>
    </g>
  </symbol>
  <symbol xmlns="http://www.w3.org/2000/svg" viewBox="0 0 32 32" id="menu-icon">
    <title>interface-essential-navigation-menu-3</title>
    <g>
      <rect x="29.71" y="3.81" width="1.53" height="24.38" fill="currentColor"></rect>
      <rect x="28.19" y="28.19" width="1.52" height="1.52" fill="currentColor"></rect>
      <rect x="28.19" y="2.28" width="1.52" height="1.53" fill="currentColor"></rect>
      <rect x="3.81" y="29.71" width="24.38" height="1.53" fill="currentColor"></rect>
      <polygon points="25.14 20.57 6.86 20.57 6.86 22.09 5.33 22.09 5.33 25.14 6.86 25.14 6.86 23.62 25.14 23.62 25.14 25.14 26.67 25.14 26.67 22.09 25.14 22.09 25.14 20.57" fill="currentColor"></polygon>
      <polygon points="25.14 12.95 6.86 12.95 6.86 14.47 5.33 14.47 5.33 17.52 6.86 17.52 6.86 16 25.14 16 25.14 17.52 26.67 17.52 26.67 14.47 25.14 14.47 25.14 12.95" fill="currentColor"></polygon>
      <polygon points="25.14 5.33 6.86 5.33 6.86 6.85 5.33 6.85 5.33 9.9 6.86 9.9 6.86 8.38 25.14 8.38 25.14 9.9 26.67 9.9 26.67 6.85 25.14 6.85 25.14 5.33" fill="currentColor"></polygon>
      <rect x="6.86" y="25.14" width="18.28" height="1.52" fill="currentColor"></rect>
      <rect x="6.86" y="17.52" width="18.28" height="1.52" fill="currentColor"></rect>
      <rect x="6.86" y="9.9" width="18.28" height="1.53" fill="currentColor"></rect>
      <rect x="3.81" y="0.76" width="24.38" height="1.52" fill="currentColor"></rect>
      <rect x="2.29" y="28.19" width="1.52" height="1.52" fill="currentColor"></rect>
      <rect x="2.29" y="2.28" width="1.52" height="1.53" fill="currentColor"></rect>
      <rect x="0.76" y="3.81" width="1.53" height="24.38" fill="currentColor"></rect>
    </g>
  </symbol>
  <symbol xmlns="http://www.w3.org/2000/svg" viewBox="0 0 32 32" id="search-coding-icon">
    <title>search-coding</title>
    <g>
      <path d="M29.72,23.625H28.19V22.1H26.67v-1.52H25.14v-3.05H23.62v3.05H22.1V22.1H20.57v1.53H17.53v1.52h3.04v1.52H22.1V28.2h1.52v1.52h1.52v1.52h4.58v-1.52h1.52v-4.57H29.72Zm0,4.57H28.19v-1.53H26.67v-1.52H25.14v-1.52h1.53v1.52h1.52v1.52h1.53Z" fill="currentColor"></path>
      <rect x="25.14" y="9.905" width="1.53" height="7.62" fill="currentColor"></rect>
      <rect x="23.62" y="6.855" width="1.52" height="3.05" fill="currentColor"></rect>
      <rect x="22.1" y="5.335" width="1.52" height="1.52" fill="currentColor"></rect>
      <rect x="20.57" y="12.955" width="1.53" height="1.52" fill="currentColor"></rect>
      <rect x="20.57" y="3.815" width="1.53" height="1.52" fill="currentColor"></rect>
      <rect x="19.05" y="14.475" width="1.52" height="1.53" fill="currentColor"></rect>
      <rect x="19.05" y="11.425" width="1.52" height="1.53" fill="currentColor"></rect>
      <rect x="17.53" y="16.005" width="1.52" height="1.52" fill="currentColor"></rect>
      <rect x="17.53" y="9.905" width="1.52" height="1.52" fill="currentColor"></rect>
      <rect x="17.53" y="2.285" width="3.04" height="1.53" fill="currentColor"></rect>
      <rect x="9.91" y="25.145" width="7.62" height="1.52" fill="currentColor"></rect>
      <rect x="14.48" y="9.905" width="1.52" height="3.05" fill="currentColor"></rect>
      <rect x="12.95" y="12.955" width="1.53" height="1.52" fill="currentColor"></rect>
      <rect x="11.43" y="14.475" width="1.52" height="3.05" fill="currentColor"></rect>
      <rect x="9.91" y="0.765" width="7.62" height="1.52" fill="currentColor"></rect>
      <rect x="6.86" y="23.625" width="3.05" height="1.52" fill="currentColor"></rect>
      <rect x="8.38" y="16.005" width="1.53" height="1.52" fill="currentColor"></rect>
      <rect x="8.38" y="9.905" width="1.53" height="1.52" fill="currentColor"></rect>
      <rect x="6.86" y="2.285" width="3.05" height="1.53" fill="currentColor"></rect>
      <rect x="6.86" y="14.475" width="1.52" height="1.53" fill="currentColor"></rect>
      <rect x="6.86" y="11.425" width="1.52" height="1.53" fill="currentColor"></rect>
      <rect x="5.34" y="22.095" width="1.52" height="1.53" fill="currentColor"></rect>
      <rect x="5.34" y="12.955" width="1.52" height="1.52" fill="currentColor"></rect>
      <rect x="5.34" y="3.815" width="1.52" height="1.52" fill="currentColor"></rect>
      <rect x="3.81" y="20.575" width="1.53" height="1.52" fill="currentColor"></rect>
      <rect x="3.81" y="5.335" width="1.53" height="1.52" fill="currentColor"></rect>
      <rect x="2.29" y="17.525" width="1.52" height="3.05" fill="currentColor"></rect>
      <rect x="2.29" y="6.855" width="1.52" height="3.05" fill="currentColor"></rect>
      <rect x="0.76" y="9.905" width="1.53" height="7.62" fill="currentColor"></rect>
    </g>
  </symbol>
  <symbol xmlns="http://www.w3.org/2000/svg" viewBox="0 0 32 32" id="diploma-icon">
    <title>social-rewards-certified-diploma</title>
    <g>
      <polygon points="30.48 23.62 28.95 23.62 28.95 25.14 32 25.14 32 19.05 30.48 19.05 30.48 23.62" fill="currentColor"></polygon>
      <rect x="30.48" y="14.47" width="1.52" height="1.53" fill="currentColor"></rect>
      <polygon points="0 0.76 0 25.14 15.24 25.14 15.24 23.62 1.52 23.62 1.52 2.28 30.48 2.28 30.48 11.43 32 11.43 32 0.76 0 0.76" fill="currentColor"></polygon>
      <rect x="28.95" y="16" width="1.53" height="1.52" fill="currentColor"></rect>
      <rect x="28.95" y="12.95" width="1.53" height="1.52" fill="currentColor"></rect>
      <polygon points="27.43 20.57 24.38 20.57 24.38 22.09 22.86 22.09 22.86 23.62 21.33 23.62 21.33 22.09 19.81 22.09 19.81 20.57 16.76 20.57 16.76 17.52 15.24 17.52 15.24 22.09 16.76 22.09 16.76 31.24 19.81 31.24 19.81 29.71 21.33 29.71 21.33 28.19 22.86 28.19 22.86 29.71 24.38 29.71 24.38 31.24 27.43 31.24 27.43 22.09 28.95 22.09 28.95 17.52 27.43 17.52 27.43 20.57" fill="currentColor"></polygon>
      <polygon points="28.95 6.86 28.95 3.81 24.38 3.81 24.38 5.33 27.43 5.33 27.43 6.86 28.95 6.86" fill="currentColor"></polygon>
      <rect x="25.9" y="12.95" width="1.53" height="4.57" fill="currentColor"></rect>
      <rect x="24.38" y="17.52" width="1.52" height="1.53" fill="currentColor"></rect>
      <rect x="24.38" y="11.43" width="1.52" height="1.52" fill="currentColor"></rect>
      <polygon points="27.43 9.9 27.43 12.95 28.95 12.95 28.95 8.38 24.38 8.38 24.38 9.9 27.43 9.9" fill="currentColor"></polygon>
      <rect x="19.81" y="19.05" width="4.57" height="1.52" fill="currentColor"></rect>
      <rect x="22.86" y="6.86" width="1.52" height="1.52" fill="currentColor"></rect>
      <rect x="21.33" y="5.33" width="1.53" height="1.53" fill="currentColor"></rect>
      <rect x="19.81" y="9.9" width="4.57" height="1.53" fill="currentColor"></rect>
      <rect x="19.81" y="6.86" width="1.52" height="1.52" fill="currentColor"></rect>
      <rect x="18.29" y="17.52" width="1.52" height="1.53" fill="currentColor"></rect>
      <rect x="18.29" y="11.43" width="1.52" height="1.52" fill="currentColor"></rect>
      <rect x="16.76" y="12.95" width="1.53" height="4.57" fill="currentColor"></rect>
      <polygon points="16.76 9.9 19.81 9.9 19.81 8.38 15.24 8.38 15.24 12.95 16.76 12.95 16.76 9.9" fill="currentColor"></polygon>
      <rect x="13.71" y="16" width="1.53" height="1.52" fill="currentColor"></rect>
      <rect x="13.71" y="12.95" width="1.53" height="1.52" fill="currentColor"></rect>
      <rect x="12.19" y="14.47" width="1.52" height="1.53" fill="currentColor"></rect>
      <polygon points="19.81 5.33 19.81 3.81 3.05 3.81 3.05 22.09 13.71 22.09 13.71 20.57 4.57 20.57 4.57 5.33 19.81 5.33" fill="currentColor"></polygon>
      <rect x="6.1" y="12.95" width="4.57" height="1.52" fill="currentColor"></rect>
      <rect x="6.1" y="6.86" width="4.57" height="4.57" fill="currentColor"></rect>
      <rect x="6.1" y="16" width="4.57" height="1.52" fill="currentColor"></rect>
    </g>
  </symbol>
  <symbol xmlns="http://www.w3.org/2000/svg" viewBox="0 0 32 32" id="email-icon">
    <title>email-mail-open-address</title>
    <g>
      <polygon points="30.48 12.19 30.48 10.67 28.95 10.67 28.95 9.14 27.43 9.14 27.43 6.1 25.91 6.1 25.91 18.29 27.43 18.29 27.43 16.76 28.95 16.76 28.95 15.24 30.48 15.24 30.48 28.95 32 28.95 32 12.19 30.48 12.19" fill="currentColor"></polygon>
      <rect x="28.95" y="28.95" width="1.53" height="1.53" fill="currentColor"></rect>
      <rect x="3.05" y="30.48" width="25.9" height="1.52" fill="currentColor"></rect>
      <rect x="24.38" y="18.29" width="1.53" height="1.52" fill="currentColor"></rect>
      <rect x="22.86" y="25.91" width="1.52" height="1.52" fill="currentColor"></rect>
      <rect x="22.86" y="19.81" width="1.52" height="1.52" fill="currentColor"></rect>
      <rect x="21.33" y="24.38" width="1.53" height="1.53" fill="currentColor"></rect>
      <rect x="21.33" y="21.33" width="1.53" height="1.53" fill="currentColor"></rect>
      <rect x="21.33" y="10.67" width="1.53" height="4.57" fill="currentColor"></rect>
      <rect x="19.81" y="9.14" width="1.52" height="1.53" fill="currentColor"></rect>
      <rect x="10.67" y="22.86" width="10.66" height="1.52" fill="currentColor"></rect>
      <rect x="18.29" y="15.24" width="3.04" height="1.52" fill="currentColor"></rect>
      <polygon points="18.29 10.67 13.72 10.67 13.72 12.19 16.76 12.19 16.76 15.24 18.29 15.24 18.29 10.67" fill="currentColor"></polygon>
      <rect x="13.72" y="15.24" width="3.04" height="1.52" fill="currentColor"></rect>
      <rect x="12.19" y="7.62" width="7.62" height="1.52" fill="currentColor"></rect>
      <rect x="12.19" y="18.29" width="7.62" height="1.52" fill="currentColor"></rect>
      <rect x="12.19" y="12.19" width="1.53" height="3.05" fill="currentColor"></rect>
      <rect x="10.67" y="16.76" width="1.52" height="1.53" fill="currentColor"></rect>
      <rect x="10.67" y="9.14" width="1.52" height="1.53" fill="currentColor"></rect>
      <rect x="9.14" y="24.38" width="1.53" height="1.53" fill="currentColor"></rect>
      <rect x="9.14" y="21.33" width="1.53" height="1.53" fill="currentColor"></rect>
      <rect x="9.14" y="10.67" width="1.53" height="6.09" fill="currentColor"></rect>
      <rect x="7.62" y="25.91" width="1.52" height="1.52" fill="currentColor"></rect>
      <rect x="7.62" y="19.81" width="1.52" height="1.52" fill="currentColor"></rect>
      <polygon points="25.91 6.1 25.91 4.57 22.86 4.57 22.86 3.05 21.33 3.05 21.33 1.52 19.81 1.52 19.81 0 12.19 0 12.19 1.52 10.67 1.52 10.67 3.05 9.14 3.05 9.14 4.57 6.1 4.57 6.1 6.1 25.91 6.1" fill="currentColor"></polygon>
      <rect x="6.1" y="18.29" width="1.52" height="1.52" fill="currentColor"></rect>
      <rect x="1.52" y="28.95" width="1.53" height="1.53" fill="currentColor"></rect>
      <polygon points="1.52 15.24 3.05 15.24 3.05 16.76 4.57 16.76 4.57 18.29 6.1 18.29 6.1 6.1 4.57 6.1 4.57 9.14 3.05 9.14 3.05 10.67 1.52 10.67 1.52 12.19 0 12.19 0 28.95 1.52 28.95 1.52 15.24" fill="currentColor"></polygon>
    </g>
  </symbol>
  <symbol version="1.0" xmlns="http://www.w3.org/2000/svg" preserveAspectRatio="xMidYMid meet" viewBox="0 0 228.000000 221.000000" id="github-icon">
    <g transform="translate(0.000000,221.000000) scale(0.100000,-0.100000)" fill="currentColor" stroke="none">
      <path d="M810 2098 l0 -38 -75 0 -75 0 0 -35 c0 -33 -2 -35 -35 -35 -34 0 -35
-1 -35 -40 0 -39 -1 -40 -35 -40 -33 0 -35 -2 -35 -35 0 -34 -1 -35 -40 -35
-39 0 -40 -1 -40 -35 0 -33 -2 -35 -35 -35 -34 0 -35 -1 -35 -40 0 -39 -1 -40
-35 -40 l-35 0 0 -70 0 -70 -40 0 -40 0 0 -75 0 -75 -35 0 -35 0 0 -330 0
-330 35 0 35 0 0 -75 0 -75 40 0 c39 0 40 -1 40 -35 0 -33 2 -35 35 -35 34 0
35 -1 35 -40 0 -39 1 -40 35 -40 33 0 35 -2 35 -35 0 -34 1 -35 40 -35 39 0
40 -1 40 -35 0 -33 2 -35 35 -35 34 0 35 -1 35 -40 0 -39 1 -40 35 -40 33 0
35 -2 35 -35 l0 -35 75 0 75 0 0 -37 0 -38 70 3 70 4 0 144 0 144 -145 0 -145
0 0 35 c0 33 -2 35 -35 35 -33 0 -35 2 -35 34 0 33 -2 35 -37 38 -36 3 -38 5
-41 41 -3 35 -5 37 -38 37 -32 0 -34 2 -34 35 l0 35 75 0 75 0 0 -35 c0 -33 2
-35 35 -35 33 0 35 -2 35 -34 0 -33 2 -35 38 -38 35 -3 37 -5 40 -40 l3 -38
70 0 69 0 0 40 c0 39 1 40 35 40 33 0 35 2 35 35 0 34 1 35 40 35 39 0 40 1
40 35 l0 34 -147 3 -148 3 -3 37 c-3 36 -5 38 -38 38 -32 0 -34 2 -34 35 0 33
-2 35 -35 35 -33 0 -35 2 -35 34 0 33 -2 35 -37 38 l-38 3 0 220 0 220 38 3
c35 3 37 5 37 38 0 32 2 34 35 34 33 0 35 2 35 35 0 33 -2 35 -35 35 l-35 0 0
115 0 115 110 0 110 0 0 -40 c0 -39 1 -40 35 -40 33 0 35 -2 35 -35 0 -33 2
-35 35 -35 33 0 35 2 35 35 l0 35 190 0 190 0 0 -35 c0 -33 2 -35 35 -35 33 0
35 2 35 35 0 33 2 35 35 35 34 0 35 1 35 40 l0 40 110 0 110 0 0 -115 0 -115
-35 0 c-33 0 -35 -2 -35 -35 0 -33 2 -35 35 -35 33 0 35 -2 35 -34 0 -33 2
-35 38 -38 l37 -3 0 -220 0 -220 -37 -3 c-36 -3 -38 -5 -38 -38 0 -32 -2 -34
-35 -34 -33 0 -35 -2 -35 -35 0 -33 -2 -35 -34 -35 -33 0 -35 -2 -38 -37 l-3
-38 -147 -3 -148 -3 0 -34 c0 -34 1 -35 40 -35 39 0 40 -1 40 -35 0 -33 2 -35
35 -35 l35 0 0 -222 0 -223 70 0 70 0 0 38 c0 37 0 37 40 37 39 0 40 1 40 35
0 33 2 35 35 35 34 0 35 1 35 40 0 39 1 40 35 40 33 0 35 2 35 35 0 34 1 35
40 35 39 0 40 1 40 35 0 33 2 35 35 35 34 0 35 1 35 40 0 39 1 40 35 40 33 0
35 2 35 35 0 34 1 35 40 35 l40 0 0 75 0 75 35 0 35 0 0 330 0 330 -35 0 -35
0 0 75 0 75 -40 0 -40 0 0 70 0 70 -35 0 c-34 0 -35 1 -35 40 0 39 -1 40 -35
40 -33 0 -35 2 -35 35 0 34 -1 35 -40 35 -39 0 -40 1 -40 35 0 33 -2 35 -35
35 -34 0 -35 1 -35 40 0 39 -1 40 -35 40 -33 0 -35 2 -35 35 l0 35 -75 0 -75
0 0 38 0 37 -330 0 -330 0 0 -37z"></path>
    </g>
  </symbol>
</svg>